<svg width="40" height="40" viewBox="0 0 40 40" fill="none" xmlns="http://www.w3.org/2000/svg">
<rect x="0.5" y="0.5" width="39" height="39" rx="1.5" stroke="black" stroke-opacity="0.3"/>
<path d="M20.5483 32.432C18.0283 32.432 15.8923 31.976 14.1403 31.064C12.3883 30.128 11.0443 28.724 10.1083 26.852C9.1963 24.956 8.7403 22.556 8.7403 19.652C8.7403 15.356 9.7843 12.152 11.8723 10.04C13.9603 7.928 16.8643 6.872 20.5843 6.872C22.6963 6.872 24.5683 7.22 26.2003 7.916C27.8323 8.588 29.1043 9.62 30.0163 11.012C30.9523 12.38 31.4203 14.108 31.4203 16.196H27.9643C27.9643 14.756 27.6523 13.568 27.0283 12.632C26.4283 11.696 25.5763 11 24.4723 10.544C23.3683 10.064 22.0723 9.824 20.5843 9.824C18.8563 9.824 17.3683 10.16 16.1203 10.832C14.8723 11.504 13.9243 12.548 13.2763 13.964C12.6283 15.356 12.3043 17.156 12.3043 19.364V20.12C12.3043 22.304 12.6283 24.092 13.2763 25.484C13.9243 26.852 14.8603 27.86 16.0843 28.508C17.3323 29.156 18.8323 29.48 20.5843 29.48C22.1203 29.48 23.4403 29.252 24.5443 28.796C25.6723 28.34 26.5363 27.644 27.1363 26.708C27.7603 25.748 28.0723 24.548 28.0723 23.108H31.4203C31.4203 25.244 30.9403 26.996 29.9803 28.364C29.0443 29.732 27.7603 30.752 26.1283 31.424C24.4963 32.096 22.6363 32.432 20.5483 32.432Z" fill="#A86D00"/>
</svg>
