<svg width="40" height="40" viewBox="0 0 40 40" fill="none" xmlns="http://www.w3.org/2000/svg">
<path fill-rule="evenodd" clip-rule="evenodd" d="M35.113 0C37.8102 0 40 2.18984 40 4.88703V35.113C40 37.8102 37.8102 40 35.113 40H26.7952V24.9285H31.9983L32.9883 18.4738H26.7952V14.2849C26.7952 12.5191 27.6602 10.7977 30.4342 10.7977H33.25V5.30242C33.25 5.30242 30.6945 4.86633 28.2514 4.86633C23.1508 4.86633 19.817 7.95766 19.817 13.5541V18.4738H14.1473V24.9285H19.817V40H4.88703C2.18984 40 0 37.8102 0 35.113V4.88703C0 2.18984 2.18977 0 4.88703 0H35.113V0Z" fill="#F5F5F5"/>
</svg>
