<svg width="60" height="60" viewBox="0 0 60 60" fill="none" xmlns="http://www.w3.org/2000/svg">
<path fill-rule="evenodd" clip-rule="evenodd" d="M52.6695 0C56.7154 0 60 3.28477 60 7.33055V52.6695C60 56.7152 56.7152 60 52.6695 60H40.1927V37.3928H47.9974L49.4824 27.7106H40.1927V21.4274C40.1927 18.7786 41.4904 16.1966 45.6513 16.1966H49.875V7.95363C49.875 7.95363 46.0418 7.29949 42.3771 7.29949C34.7262 7.29949 29.7255 11.9365 29.7255 20.3312V27.7106H21.2209V37.3928H29.7255V60H7.33055C3.28477 60 0 56.7152 0 52.6695V7.33055C0 3.28477 3.28465 0 7.33055 0H52.6695V0Z" fill="#F5F5F5"/>
</svg>
