<svg width="40" height="40" viewBox="0 0 40 40" fill="none" xmlns="http://www.w3.org/2000/svg">
<path d="M34.3699 0H5.63001C4.13683 0 2.70481 0.593155 1.64899 1.64898C0.59316 2.70483 0 4.13683 0 5.63V34.37C0 35.8633 0.59316 37.2953 1.64899 38.351C2.70481 39.4068 4.13683 40 5.63001 40H34.3699C35.8631 40 37.2951 39.4068 38.3509 38.351C39.4069 37.2953 39.9999 35.8633 39.9999 34.37V5.63C39.9999 4.13683 39.4069 2.70483 38.3509 1.64898C37.2951 0.593155 35.8631 0 34.3699 0ZM13.335 31.96C13.335 32.06 13.2675 32.21 13.135 32.4125C12.935 32.5475 12.7825 32.6125 12.6825 32.6125H8.05751C7.95751 32.6125 7.80751 32.5475 7.60751 32.4125C7.47251 32.2125 7.40501 32.0625 7.40501 31.96V15.725C7.40501 15.625 7.47251 15.475 7.60501 15.275C7.80501 15.14 7.95501 15.0725 8.05751 15.0725H12.6825C12.7825 15.0725 12.9325 15.14 13.1325 15.2725C13.2675 15.4725 13.335 15.6225 13.335 15.725V31.96ZM12.5825 12.3075C12.2951 12.6014 11.9505 12.8334 11.5699 12.989C11.1894 13.1447 10.781 13.2207 10.37 13.2125C9.49751 13.2125 8.76251 12.9125 8.15751 12.3075C7.86343 12.0201 7.63138 11.6756 7.47573 11.295C7.32008 10.9145 7.24411 10.506 7.25251 10.095C7.25251 9.2575 7.55501 8.5375 8.15751 7.935C8.44171 7.63338 8.78458 7.39305 9.16506 7.2288C9.54553 7.06455 9.95558 6.9798 10.37 6.9798C10.7844 6.9798 11.1945 7.06455 11.5749 7.2288C11.9554 7.39305 12.2983 7.63338 12.5825 7.935C13.1825 8.535 13.485 9.26 13.485 10.095C13.485 10.9675 13.185 11.705 12.5825 12.3075ZM32.9874 31.96C32.9866 32.045 32.9686 32.129 32.9341 32.2068C32.8999 32.2848 32.8499 32.3548 32.7874 32.4125C32.7296 32.4748 32.6596 32.5248 32.5819 32.5593C32.5041 32.5935 32.4201 32.6118 32.3349 32.6125H27.6099C27.5099 32.6125 27.3599 32.5475 27.1599 32.4125C27.0249 32.2125 26.9574 32.0625 26.9574 31.96V22.06C26.9574 21.22 26.8074 20.5675 26.5049 20.0975C26.1349 19.6975 25.5324 19.4975 24.6949 19.4975C23.6225 19.4975 22.8525 19.8125 22.3825 20.45C21.9475 21.0875 21.73 21.9925 21.73 23.165V31.96C21.7292 32.045 21.711 32.129 21.6767 32.2068C21.6423 32.2848 21.5924 32.3548 21.53 32.4125C21.4718 32.4753 21.4015 32.5253 21.3232 32.5598C21.245 32.594 21.1605 32.612 21.075 32.6125H16.45C16.35 32.6125 16.2 32.5475 16 32.4125C15.865 32.2125 15.8 32.0625 15.8 31.96V15.725C15.8 15.625 15.865 15.475 16 15.275C16.2 15.14 16.35 15.0725 16.45 15.0725H20.925C21.06 15.0725 21.1925 15.105 21.325 15.1725C21.395 15.2075 21.4625 15.3225 21.5275 15.5225V15.775L21.5775 15.875V16.2775C22.685 15.2075 24.21 14.67 26.1524 14.67C28.3299 14.67 30.0049 15.19 31.1774 16.2275C32.3849 17.3325 32.9874 18.9275 32.9874 21.0025V31.96Z" fill="#F5F5F5"/>
</svg>
