<svg width="40" height="40" viewBox="0 0 40 40" fill="none" xmlns="http://www.w3.org/2000/svg">
<path fill-rule="evenodd" clip-rule="evenodd" d="M35.113 0C37.8102 0 40 2.18984 40 4.88703V35.113C40 37.8102 37.8102 40 35.113 40H4.88703C2.18984 40 0 37.8102 0 35.113V4.88703C0 2.18984 2.18977 0 4.88703 0H35.113V0ZM20 6.32812C16.287 6.32812 15.8213 6.34383 14.3631 6.41039C12.9079 6.4768 11.9141 6.70789 11.0444 7.04594C10.1453 7.39531 9.38289 7.86281 8.62281 8.62281C7.86273 9.38289 7.39523 10.1454 7.04586 11.0444C6.70789 11.9141 6.4768 12.9079 6.41031 14.3631C6.34383 15.8213 6.32812 16.287 6.32812 20C6.32812 23.713 6.34383 24.1787 6.41031 25.6369C6.4768 27.0921 6.70789 28.0859 7.04586 28.9556C7.39523 29.8546 7.86273 30.6171 8.62281 31.3772C9.38289 32.1373 10.1453 32.6048 11.0444 32.9541C11.9141 33.2921 12.9079 33.5232 14.3631 33.5896C15.8213 33.6562 16.287 33.6719 20 33.6719C23.713 33.6719 24.1787 33.6562 25.6369 33.5896C27.0921 33.5232 28.0859 33.2921 28.9556 32.9541C29.8546 32.6048 30.6171 32.1373 31.3772 31.3772C32.1373 30.6171 32.6048 29.8546 32.9541 28.9556C33.2921 28.0859 33.5232 27.0921 33.5896 25.6369C33.6562 24.1787 33.6719 23.713 33.6719 20C33.6719 16.287 33.6562 15.8213 33.5896 14.3631C33.5232 12.9079 33.2921 11.9141 32.9541 11.0444C32.6048 10.1454 32.1373 9.38289 31.3772 8.62281C30.6171 7.86281 29.8546 7.39531 28.9556 7.04594C28.0859 6.70789 27.0921 6.4768 25.6369 6.41039C24.1787 6.34383 23.713 6.32812 20 6.32812V6.32812ZM20 8.79156C23.6505 8.79156 24.083 8.80547 25.5246 8.87125C26.8576 8.93211 27.5815 9.15484 28.0633 9.34195C28.7015 9.59 29.1569 9.88633 29.6353 10.3647C30.1138 10.8431 30.41 11.2986 30.658 11.9367C30.8452 12.4185 31.068 13.1424 31.1287 14.4754C31.1945 15.917 31.2085 16.3495 31.2085 20C31.2085 23.6505 31.1945 24.083 31.1287 25.5246C31.068 26.8576 30.8452 27.5815 30.658 28.0633C30.41 28.7015 30.1138 29.1569 29.6353 29.6353C29.1569 30.1138 28.7015 30.41 28.0633 30.658C27.5815 30.8452 26.8576 31.068 25.5246 31.1287C24.0832 31.1945 23.6508 31.2085 20 31.2085C16.3492 31.2085 15.9169 31.1945 14.4754 31.1287C13.1424 31.068 12.4185 30.8452 11.9367 30.658C11.2985 30.41 10.8431 30.1138 10.3647 29.6353C9.88625 29.1569 9.58992 28.7015 9.34195 28.0633C9.15477 27.5815 8.93203 26.8576 8.87117 25.5246C8.80539 24.083 8.79148 23.6505 8.79148 20C8.79148 16.3495 8.80539 15.917 8.87117 14.4754C8.93203 13.1424 9.15477 12.4185 9.34195 11.9367C9.58992 11.2986 9.88625 10.8431 10.3647 10.3647C10.8431 9.88633 11.2985 9.59 11.9367 9.34195C12.4185 9.15484 13.1424 8.93211 14.4754 8.87125C15.917 8.80547 16.3495 8.79156 20 8.79156V8.79156ZM20 12.9793C16.1226 12.9793 12.9793 16.1226 12.9793 20C12.9793 23.8774 16.1226 27.0207 20 27.0207C23.8774 27.0207 27.0207 23.8774 27.0207 20C27.0207 16.1226 23.8774 12.9793 20 12.9793ZM20 24.5573C17.483 24.5573 15.4427 22.517 15.4427 20C15.4427 17.483 17.483 15.4427 20 15.4427C22.517 15.4427 24.5573 17.483 24.5573 20C24.5573 22.517 22.517 24.5573 20 24.5573V24.5573ZM28.9387 12.702C28.9387 13.608 28.2041 14.3425 27.298 14.3425C26.392 14.3425 25.6575 13.608 25.6575 12.702C25.6575 11.7959 26.392 11.0613 27.298 11.0613C28.2041 11.0613 28.9387 11.7959 28.9387 12.702Z" fill="#F5F5F5"/>
</svg>
