<svg width="40" height="40" viewBox="0 0 40 40" fill="none" xmlns="http://www.w3.org/2000/svg">
<path d="M18.1562 34.8584H26.5312C27.8438 34.8584 28.9583 34.4074 29.875 33.5054C30.7917 32.6035 31.25 31.4993 31.25 30.193V12.7445C31.25 12.0188 30.9896 11.3967 30.4688 10.8784C29.9479 10.36 29.3229 10.1008 28.5938 10.1008C28.3646 10.1008 28.1406 10.1215 27.9219 10.163C27.7031 10.2045 27.5104 10.2978 27.3438 10.4429V9.01222C27.3438 8.22429 27.0885 7.55041 26.5781 6.99056C26.0677 6.43071 25.4375 6.15079 24.6875 6.15079C24.4167 6.15079 24.1562 6.18708 23.9062 6.25965C23.6562 6.33222 23.4167 6.45145 23.1875 6.61733C23 6.11969 22.6927 5.72572 22.2656 5.43543C21.8385 5.14514 21.3542 5 20.8125 5C20.0833 5 19.4531 5.25919 18.9219 5.77756C18.3906 6.29594 18.125 6.91799 18.125 7.64371V8.45238C17.9583 8.30723 17.7656 8.20356 17.5469 8.14135C17.3281 8.07915 17.1042 8.04804 16.875 8.04804C16.1458 8.04804 15.5208 8.30723 15 8.82561C14.4792 9.34398 14.2188 9.96603 14.2188 10.6918V24.2524L9.28125 21.4843C8.92708 21.2977 8.5625 21.2614 8.1875 21.3755C7.8125 21.4895 7.47917 21.6813 7.1875 21.9509L5 23.8481L14.2812 33.4277C14.7812 33.9461 15.3698 34.3141 16.0469 34.5318C16.724 34.7495 17.4271 34.8584 18.1562 34.8584ZM18.1562 32.9922C17.7188 32.9922 17.2865 32.9508 16.8594 32.8678C16.4323 32.7849 16.0729 32.5983 15.7812 32.308L7.8125 24.0658L8.65625 23.2883L16.0938 27.3005V10.6918C16.0938 10.4637 16.1667 10.2771 16.3125 10.1319C16.4583 9.98677 16.6458 9.9142 16.875 9.9142C17.1042 9.9142 17.2917 9.98677 17.4375 10.1319C17.5833 10.2771 17.6562 10.4637 17.6562 10.6918V19.9292H20V7.64371C20 7.41563 20.0729 7.22901 20.2188 7.08387C20.3646 6.93872 20.5521 6.86615 20.7812 6.86615C21.0104 6.86615 21.1979 6.93872 21.3438 7.08387C21.4896 7.22901 21.5625 7.41563 21.5625 7.64371V19.9292H23.9062V8.7945C23.9062 8.56642 23.9792 8.3798 24.125 8.23466C24.2708 8.08951 24.4583 8.01694 24.6875 8.01694C24.9167 8.01694 25.1042 8.08951 25.25 8.23466C25.3958 8.3798 25.4688 8.56642 25.4688 8.7945V19.9292H27.8125V12.7445C27.8125 12.5164 27.8854 12.3298 28.0312 12.1847C28.1771 12.0395 28.3646 11.967 28.5938 11.967C28.8229 11.967 29.0104 12.0395 29.1562 12.1847C29.3021 12.3298 29.375 12.5164 29.375 12.7445V30.193C29.375 30.981 29.099 31.6445 28.5469 32.1836C27.9948 32.7227 27.3229 32.9922 26.5312 32.9922H22.3438H18.1562Z" fill="#F5F5F5"/>
</svg>
