<svg width="40" height="40" viewBox="0 0 40 40" fill="none" xmlns="http://www.w3.org/2000/svg">
<path d="M23.7087 26.9621L26.9119 23.7087L32.854 29.6138L33.0822 29.8406L33.3831 29.7269C34.7136 29.2244 36.373 29.5311 37.4433 30.6045C37.9874 31.1501 38.4051 32.2505 38.4861 33.2648C38.5261 33.766 38.478 34.1858 38.3644 34.4667C38.3034 34.6175 38.2339 34.7096 38.158 34.7636L35.5242 32.2556L35.167 31.9155L34.8221 32.268L32.3938 34.7487L32.0456 35.1044L32.3996 35.4542L35.0403 38.0633C35.0061 38.1619 34.9331 38.2412 34.8112 38.3113C34.598 38.4341 34.2433 38.5143 33.7663 38.4979C32.8271 38.4655 31.6102 38.064 30.6189 37.2824C29.5448 36.1901 29.2753 34.6773 29.8017 33.3345L29.9228 33.0258L29.6854 32.7942L23.7087 26.9621Z" fill="#D9D9D9" stroke="#212121"/>
<path d="M19.1122 31.7281L19.11 31.7262C14.8309 27.8814 11.4016 24.7965 9.02396 21.9163C6.66316 19.0565 5.5 16.5845 5.5 13.9918C5.5 9.79782 8.80838 6.5 13.075 6.5C15.497 6.5 17.8411 7.62442 19.3624 9.39459L20.5 10.7182L21.6376 9.39459C23.1589 7.62442 25.503 6.5 27.925 6.5C32.1916 6.5 35.5 9.79782 35.5 13.9918C35.5 16.5845 34.3368 19.0566 31.9757 21.9188C29.598 24.801 26.1691 27.8896 21.8903 31.7423C21.8898 31.7427 21.8893 31.7432 21.8888 31.7436L20.5038 32.9834L19.1122 31.7281Z" fill="#BC7A00" stroke="#8C5C02" stroke-width="3"/>
<path d="M7.60624 5.25126L7.95436 4.89562L7.60036 4.54584L4.95972 1.93671C4.99393 1.83808 5.06694 1.75882 5.18875 1.68868C5.40199 1.5659 5.75666 1.48567 6.23365 1.50213C7.17292 1.53454 8.38982 1.936 9.38106 2.71757C10.4552 3.80988 10.7247 5.32268 10.1983 6.66545L10.0772 6.9742L10.3146 7.20581L16.2913 13.0379L13.0881 16.2913L7.14599 10.3862L6.91781 10.1594L6.61688 10.2731C5.28636 10.7756 3.62703 10.4689 2.55666 9.39549C2.01264 8.84991 1.59487 7.74945 1.5139 6.73523C1.47388 6.234 1.522 5.81421 1.63563 5.53327C1.69663 5.38245 1.76605 5.2904 1.84203 5.23636L4.47583 7.74437L4.83297 8.08445L5.17794 7.73203L7.60624 5.25126Z" fill="#D9D9D9" stroke="#212121"/>
</svg>
