<svg width="40" height="40" viewBox="0 0 40 40" fill="none" xmlns="http://www.w3.org/2000/svg">
<path d="M20.0337 20.8301C24.4537 20.8301 27.0337 15.2501 27.0337 10.8301C27.0337 7.83008 24.4537 4.83008 20.0337 4.83008C15.6137 4.83008 13.0337 7.83008 13.0337 10.8301C13.0337 15.2501 15.6137 20.8301 20.0337 20.8301ZM19.8018 6.83008C22.0018 6.83008 25.4929 8.63008 25.4929 10.8301C26.4929 15.8301 22.2337 19.8301 20.0337 19.8301C17.8337 19.8301 13.7666 15.1068 14.261 11.3301C14.5466 9.14869 17.6018 6.83008 19.8018 6.83008ZM20.0337 20.8301C14.6937 20.8301 7.18408 23.5101 7.18408 28.8301V34.8301H20.0337H33.1841V28.8301C33.1841 23.5101 25.3737 20.8301 20.0337 20.8301ZM31.1841 32.8301H9.18408V29.8301V27.8301C9.58408 26.3901 14.6337 22.8301 20.0337 22.8301C25.4337 22.8301 30.7841 26.4101 31.1841 27.8301V32.8301Z" fill="#F5F5F5"/>
<path d="M26.4929 8.33105C26.4929 11.9209 23.5828 8.83105 19.9929 8.83105C16.4031 8.83105 13.4929 11.9209 13.4929 8.33105C13.4929 4.7412 16.4031 1.83105 19.9929 1.83105C23.5828 1.83105 26.4929 4.7412 26.4929 8.33105Z" fill="#FFA500" fill-opacity="0.7"/>
<path d="M27.9929 8.83105H26.9929C26.9929 6.33842 25.3656 3.93632 23.3613 2.75737V4.35737C23.3613 4.82895 22.9908 5.19947 22.5192 5.19947C22.0477 5.19947 21.6771 4.82895 21.6771 4.35737V2.06684C21.1382 1.93211 20.5824 1.83105 19.9929 1.83105C19.4034 1.83105 18.8477 1.93211 18.3087 2.06684V4.35737C18.3087 4.82895 17.9382 5.19947 17.4666 5.19947C16.995 5.19947 16.6245 4.82895 16.6245 4.35737V2.75737C14.6203 3.93632 12.9929 6.33842 12.9929 8.83105H11.9929V10.8311H27.9929V8.83105Z" fill="#F5F5F5"/>
<ellipse cx="16.9927" cy="12.8338" rx="1" ry="1.00474" fill="#F5F5F5"/>
<ellipse cx="22.9929" cy="12.8338" rx="1" ry="1.00474" fill="#F5F5F5"/>
</svg>
