<svg width="40" height="40" viewBox="0 0 40 40" fill="none" xmlns="http://www.w3.org/2000/svg">
<path d="M19 20C23.42 20 25.8496 14.42 25.8496 10C25.8496 7 23.2696 4 18.8496 4C14.4296 4 11.8496 7 11.8496 10C11.8496 14.42 14.58 20 19 20ZM18.8496 10C18.8496 9.98399 18.8496 9.98399 18.8496 10C18.7053 10 18.6831 9.99996 18.8496 10C18.8496 10.016 18.8496 10.016 18.8496 10C18.8496 10.016 18.8496 9.98399 18.8496 10ZM19 20C13.66 20 6 22.68 6 28V34H18.8496H32V28C32 22.68 24.34 20 19 20ZM30 32H8C10 33 13 33 18 32C24 33 27 33 29 32H30Z" fill="#F5F5F5"/>
<ellipse cx="19.1799" cy="28" rx="13" ry="6" fill="#BC7A00"/>
<rect x="6.17993" y="28" width="26" height="6" fill="#BC7A00"/>
<path d="M19.0337 20C23.4537 20 26.0337 14.42 26.0337 10C26.0337 7 23.4537 4 19.0337 4C14.6137 4 12.0337 7 12.0337 10C12.0337 14.42 14.6137 20 19.0337 20ZM18.8018 6C21.0018 6 24.4929 7.8 24.4929 10C25.4929 15 21.2337 19 19.0337 19C16.8337 19 12.7666 14.2767 13.261 10.5C13.5466 8.31861 16.6018 6 18.8018 6ZM19.0337 20C13.6937 20 6.18408 22.68 6.18408 28V34H19.0337H32.1841V28C32.1841 22.68 24.3737 20 19.0337 20ZM30.1841 32H8.18408V29V27C8.58408 25.56 13.6337 22 19.0337 22C24.4337 22 29.7841 25.58 30.1841 27V32Z" fill="#F5F5F5"/>
<path d="M25.5 8.49999C25.5 12.0898 22.5899 8.99999 19 8.99999C15.4101 8.99999 12.5 12.0898 12.5 8.49999C12.5 4.91015 15.4101 2 19 2C22.5899 2 25.5 4.91015 25.5 8.49999Z" fill="#FFA500"/>
<path d="M27 9H26C26 6.50737 24.3726 4.10526 22.3684 2.92632V4.52632C22.3684 4.99789 21.9979 5.36842 21.5263 5.36842C21.0547 5.36842 20.6842 4.99789 20.6842 4.52632V2.23579C20.1453 2.10105 19.5895 2 19 2C18.4105 2 17.8547 2.10105 17.3158 2.23579V4.52632C17.3158 4.99789 16.9453 5.36842 16.4737 5.36842C16.0021 5.36842 15.6316 4.99789 15.6316 4.52632V2.92632C13.6274 4.10526 12 6.50737 12 9H11V11H27V9Z" fill="#A86D00"/>
<ellipse cx="15.9927" cy="12.8338" rx="1" ry="1.00474" fill="#171717"/>
<ellipse cx="21.9929" cy="12.8338" rx="1" ry="1.00474" fill="#171717"/>
</svg>
