<svg width="60" height="60" viewBox="0 0 60 60" fill="none" xmlns="http://www.w3.org/2000/svg">
<path d="M51.5548 0H8.44501C6.20525 0 4.05722 0.889732 2.47348 2.47347C0.88974 4.05724 0 6.20524 0 8.445V51.555C0 53.7949 0.88974 55.9429 2.47348 57.5265C4.05722 59.1101 6.20525 60 8.44501 60H51.5548C53.7947 60 55.9427 59.1101 57.5263 57.5265C59.1103 55.9429 59.9998 53.7949 59.9998 51.555V8.445C59.9998 6.20524 59.1103 4.05724 57.5263 2.47347C55.9427 0.889732 53.7947 0 51.5548 0ZM20.0025 47.94C20.0025 48.09 19.9013 48.315 19.7025 48.6188C19.4025 48.8213 19.1738 48.9188 19.0238 48.9188H12.0863C11.9363 48.9188 11.7113 48.8213 11.4113 48.6188C11.2088 48.3188 11.1075 48.0938 11.1075 47.94V23.5875C11.1075 23.4375 11.2088 23.2125 11.4075 22.9125C11.7075 22.71 11.9325 22.6087 12.0863 22.6087H19.0238C19.1738 22.6087 19.3988 22.71 19.6988 22.9087C19.9013 23.2087 20.0025 23.4337 20.0025 23.5875V47.94ZM18.8738 18.4612C18.4426 18.9022 17.9257 19.2501 17.3549 19.4836C16.7841 19.717 16.1715 19.8311 15.555 19.8187C14.2463 19.8187 13.1438 19.3687 12.2363 18.4612C11.7951 18.0302 11.4471 17.5134 11.2136 16.9425C10.9801 16.3717 10.8662 15.7591 10.8788 15.1425C10.8788 13.8862 11.3325 12.8062 12.2363 11.9025C12.6626 11.4501 13.1769 11.0896 13.7476 10.8432C14.3183 10.5968 14.9334 10.4697 15.555 10.4697C16.1766 10.4697 16.7917 10.5968 17.3624 10.8432C17.9331 11.0896 18.4474 11.4501 18.8738 11.9025C19.7738 12.8025 20.2275 13.89 20.2275 15.1425C20.2275 16.4512 19.7775 17.5575 18.8738 18.4612ZM49.4811 47.94C49.48 48.0675 49.453 48.1935 49.4012 48.3101C49.3498 48.4271 49.2748 48.5321 49.1811 48.6188C49.0945 48.7121 48.9895 48.7871 48.8728 48.8389C48.7562 48.8903 48.6302 48.9176 48.5023 48.9188H41.4148C41.2648 48.9188 41.0398 48.8213 40.7398 48.6188C40.5373 48.3188 40.4361 48.0938 40.4361 47.94V33.09C40.4361 31.83 40.2111 30.8512 39.7573 30.1462C39.2023 29.5462 38.2986 29.2462 37.0423 29.2462C35.4337 29.2462 34.2787 29.7187 33.5737 30.675C32.9212 31.6312 32.595 32.9887 32.595 34.7475V47.94C32.5938 48.0675 32.5666 48.1935 32.515 48.3101C32.4634 48.4271 32.3886 48.5321 32.295 48.6188C32.2078 48.7129 32.1022 48.7879 31.9848 48.8396C31.8675 48.891 31.7407 48.918 31.6125 48.9188H24.675C24.525 48.9188 24.3 48.8213 24 48.6188C23.7975 48.3188 23.7 48.0938 23.7 47.94V23.5875C23.7 23.4375 23.7975 23.2125 24 22.9125C24.3 22.71 24.525 22.6087 24.675 22.6087H31.3875C31.59 22.6087 31.7887 22.6575 31.9875 22.7587C32.0925 22.8112 32.1937 22.9837 32.2912 23.2837V23.6625L32.3662 23.8125V24.4162C34.0275 22.8112 36.315 22.005 39.2286 22.005C42.4948 22.005 45.0073 22.785 46.7661 24.3412C48.5773 25.9987 49.4811 28.3912 49.4811 31.5037V47.94Z" fill="#F5F5F5"/>
</svg>
