<svg width="40" height="40" viewBox="0 0 40 40" fill="none" xmlns="http://www.w3.org/2000/svg">
<rect x="0.5" y="0.5" width="39" height="39" rx="1.5" stroke="black" stroke-opacity="0.3"/>
<path d="M27.0196 17.8949C30.9495 17.8949 33.2388 10.578 33.2388 6.75222C33.2388 4.15553 30.8158 4.0459 26.8859 4.0459C22.9561 4.0459 20.7286 4.15553 20.7286 6.75222C20.7286 10.578 23.0898 17.8949 27.0196 17.8949ZM26.8859 9.23927C26.8859 9.22541 26.8859 9.22541 26.8859 9.23927C26.7576 9.23929 26.7379 9.23924 26.8859 9.23927C26.886 9.25312 26.886 9.25312 26.8859 9.23927C26.886 9.25312 26.8859 9.22541 26.8859 9.23927ZM27.0196 17.8949C22.2718 17.8949 15.4612 20.2146 15.4612 24.8194V30.0127L15.4611 38.9728H37.2613L37.9198 24.8194C37.9198 20.2146 31.7675 17.8949 27.0196 17.8949ZM37.2613 38.9728L33.3106 36.3395C33.3106 36.3395 30.182 35.2302 34.6276 34.3646C34.6276 34.3646 13.6829 39.8383 15.4611 38.9728H37.2613Z" fill="#171717"/>
<ellipse cx="25.0084" cy="10.5361" rx="0.987654" ry="0.496072" fill="#E9E9E9"/>
<ellipse cx="28.9591" cy="10.5361" rx="0.987654" ry="0.496072" fill="#E9E9E9"/>
<path d="M10.5583 21.3412C14.4882 21.3412 16.7778 15.1861 16.7778 11.3603C16.7778 8.7636 14.3545 7.49219 10.4246 7.49219C6.49474 7.49219 4.26753 8.7636 4.26753 11.3603C4.26753 15.1861 6.62845 21.3412 10.5583 21.3412ZM10.4246 12.6856C10.4246 12.6717 10.4246 12.6717 10.4246 12.6856C10.2963 12.6856 10.2765 12.6855 10.4246 12.6856C10.4246 12.6994 10.4246 12.6994 10.4246 12.6856C10.4246 12.6994 10.4246 12.6717 10.4246 12.6856ZM10.5583 21.3412C5.81047 21.3412 1.66723 21.8966 1.66723 26.5014L1.63379 39.0092H10.5583L22.1167 33.459V28.2657C22.1167 23.6609 15.3062 21.3412 10.5583 21.3412ZM20.3385 31.7279L6.24284 31.1095C8.02106 31.9751 5.22366 32.5935 9.6692 31.7279C15.0039 32.5935 17.6712 32.5935 19.4494 31.7279H20.3385Z" fill="#515151"/>
<ellipse cx="7.72417" cy="13.3382" rx="0.823045" ry="0.661429" fill="white"/>
<ellipse cx="12.6626" cy="13.3382" rx="0.823045" ry="0.661429" fill="white"/>
<path d="M20.264 28C24.1938 28 26.6544 22.9233 26.6544 19.2942C26.6544 16.8309 24.1938 14.6455 20.264 14.6455C16.3341 14.6455 14.0402 16.8309 14.0402 19.2942C14.0402 22.9233 16.3341 28 20.264 28ZM20.264 19.2942C20.2639 19.281 20.2639 19.281 20.264 19.2942C20.1357 19.2942 20.1159 19.2941 20.264 19.2942C20.264 19.3073 20.264 19.3073 20.264 19.2942C20.264 19.3073 20.2639 19.281 20.264 19.2942ZM20.264 28C15.5161 28 9.00024 29.6319 9.00024 34V38L20.264 39L31.9561 37.7511L32.0002 34C32.0002 29.6319 25.0118 28 20.264 28ZM25.3375 35.2532L12.8272 36.5021C14.6054 37.3232 15.063 38.1789 19.5086 37.3578C24.8432 38.1789 24.8761 38.5721 26.6544 37.7511L25.3375 35.2532Z" fill="#AAAAAA"/>
<ellipse cx="17.7304" cy="20.7456" rx="1.31687" ry="0.627435" fill="black"/>
<ellipse cx="22.1767" cy="20.7456" rx="1.31687" ry="0.627435" fill="black"/>
<path d="M32.7271 6.44744C32.7271 9.55468 30.1397 6.88022 26.9479 6.88022C23.7561 6.88022 21.1687 9.55468 21.1687 6.44744C21.1687 3.3402 23.7561 0.821289 26.9479 0.821289C30.1397 0.821289 32.7271 3.3402 32.7271 6.44744Z" fill="#8C5C02"/>
<path d="M34.0607 6.88022H33.1716C33.1716 4.72269 31.7247 2.64352 29.9427 1.62307V3.00797C29.9427 3.41615 29.6133 3.73687 29.194 3.73687C28.7747 3.73687 28.4453 3.41615 28.4453 3.00797V1.02538C27.9661 0.908756 27.4719 0.821289 26.9478 0.821289C26.4237 0.821289 25.9296 0.908756 25.4504 1.02538V3.00797C25.4504 3.41615 25.1209 3.73687 24.7017 3.73687C24.2824 3.73687 23.9529 3.41615 23.9529 3.00797V1.62307C22.171 2.64352 20.7241 4.72269 20.7241 6.88022H19.835V8.61134H34.0607V6.88022Z" fill="#F5F5F5"/>
<path d="M16.3372 9.20232C16.3372 12.3096 13.7498 9.63511 10.558 9.63511C7.36625 9.63511 4.77881 12.3096 4.77881 9.20232C4.77881 6.09509 7.36625 3.57617 10.558 3.57617C13.7498 3.57617 16.3372 6.09509 16.3372 9.20232Z" fill="#A86D00"/>
<path d="M17.6708 9.6351H16.7817C16.7817 7.47758 15.3348 5.39841 13.5528 4.37796V5.76285C13.5528 6.17103 13.2234 6.49175 12.8041 6.49175C12.3848 6.49175 12.0554 6.17103 12.0554 5.76285V3.78026C11.5762 3.66364 11.082 3.57617 10.5579 3.57617C10.0338 3.57617 9.53967 3.66364 9.06049 3.78026V5.76285C9.06049 6.17103 8.73105 6.49175 8.31177 6.49175C7.89248 6.49175 7.56305 6.17103 7.56305 5.76285V4.37796C5.78108 5.39841 4.33418 7.47758 4.33418 9.6351H3.44507V11.3662H17.6708V9.6351Z" fill="#F5F5F5"/>
<path d="M26.1768 17.3849C26.1768 20.4922 23.5894 17.8177 20.3976 17.8177C17.2058 17.8177 14.6184 20.4922 14.6184 17.3849C14.6184 14.2777 17.2058 11.7588 20.3976 11.7588C23.5894 11.7588 26.1768 14.2777 26.1768 17.3849Z" fill="#A86D00"/>
<path d="M27.5109 17.8177H26.6218C26.6218 15.6602 25.1749 13.581 23.3929 12.5606V13.9455C23.3929 14.3537 23.0635 14.6744 22.6442 14.6744C22.2249 14.6744 21.8955 14.3537 21.8955 13.9455V11.9629C21.4163 11.8463 20.9221 11.7588 20.398 11.7588C19.8739 11.7588 19.3798 11.8463 18.9006 11.9629V13.9455C18.9006 14.3537 18.5711 14.6744 18.1519 14.6744C17.7326 14.6744 17.4031 14.3537 17.4031 13.9455V12.5606C15.6212 13.581 14.1743 15.6602 14.1743 17.8177H13.2852V19.5488H27.5109V17.8177Z" fill="white"/>
<path d="M32 33.5C32 36.5376 26.8513 39 20.5 39C14.1487 39 9 36.5376 9 33.5C9 30.4624 14.1487 28 20.5 28C26.8513 28 32 30.4624 32 33.5Z" fill="#A86D00"/>
<rect x="9" y="33" width="23" height="6" fill="#A86D00"/>
</svg>
