<svg width="20" height="20" viewBox="0 0 20 20" fill="none" xmlns="http://www.w3.org/2000/svg">
<path d="M17.7504 18.8407C16.9079 18.3451 11.2336 12.3239 11.2336 12.3239C10.738 12.7534 10.1599 13.0879 9.49909 13.3274C8.83832 13.5669 8.13626 13.6867 7.3929 13.6867C5.60884 13.6867 4.09734 13.0672 2.8584 11.8283C1.61947 10.5894 1 9.09437 1 7.34334C1 5.59232 1.61947 4.09734 2.8584 2.8584C4.09734 1.61947 5.60058 1 7.36812 1C9.11915 1 10.61 1.61947 11.8407 2.8584C13.0714 4.09734 13.6867 5.59232 13.6867 7.34334C13.6867 8.05367 13.5711 8.73921 13.3398 9.39997C13.1085 10.0607 12.7616 10.6802 12.2991 11.2584C12.2991 11.2584 18.3451 16.9079 18.8407 17.7504C19.3362 18.5929 18.5929 19.3362 17.7504 18.8407ZM7.36812 12.2C8.70617 12.2 9.84599 11.725 10.7876 10.7752C11.7292 9.82534 12.2 8.68139 12.2 7.34334C12.2 6.00529 11.7292 4.86135 10.7876 3.9115C9.84599 2.96165 8.70617 2.48672 7.36812 2.48672C6.01355 2.48672 4.86135 2.96165 3.9115 3.9115C2.96165 4.86135 2.48672 6.00529 2.48672 7.34334C2.48672 8.68139 2.96165 9.82534 3.9115 10.7752C4.86135 11.725 6.01355 12.2 7.36812 12.2Z" fill="#F5F5F5" fill-opacity="0.7" stroke="#BEC5C5"/>
</svg>
