<svg width="60" height="60" viewBox="0 0 60 60" fill="none" xmlns="http://www.w3.org/2000/svg">
<path fill-rule="evenodd" clip-rule="evenodd" d="M52.6695 0C56.7154 0 60 3.28477 60 7.33055V52.6695C60 56.7152 56.7152 60 52.6695 60H7.33055C3.28477 60 0 56.7152 0 52.6695V7.33055C0 3.28477 3.28465 0 7.33055 0H52.6695V0ZM30 9.49219C24.4304 9.49219 23.732 9.51574 21.5447 9.61559C19.3618 9.7152 17.8711 10.0618 16.5666 10.5689C15.218 11.093 14.0743 11.7942 12.9342 12.9342C11.7941 14.0743 11.0929 15.2181 10.5688 16.5666C10.0618 17.8711 9.7152 19.3618 9.61547 21.5447C9.51574 23.732 9.49219 24.4304 9.49219 30C9.49219 35.5696 9.51574 36.268 9.61547 38.4553C9.7152 40.6382 10.0618 42.1289 10.5688 43.4334C11.0929 44.7819 11.7941 45.9257 12.9342 47.0658C14.0743 48.2059 15.218 48.9071 16.5666 49.4312C17.8711 49.9382 19.3618 50.2848 21.5447 50.3844C23.732 50.4843 24.4304 50.5078 30 50.5078C35.5696 50.5078 36.268 50.4843 38.4553 50.3844C40.6382 50.2848 42.1289 49.9382 43.4334 49.4312C44.7819 48.9071 45.9257 48.2059 47.0658 47.0658C48.2059 45.9257 48.9071 44.7819 49.4312 43.4334C49.9382 42.1289 50.2848 40.6382 50.3844 38.4553C50.4843 36.268 50.5078 35.5696 50.5078 30C50.5078 24.4304 50.4843 23.732 50.3844 21.5447C50.2848 19.3618 49.9382 17.8711 49.4312 16.5666C48.9071 15.2181 48.2059 14.0743 47.0658 12.9342C45.9257 11.7942 44.7819 11.093 43.4334 10.5689C42.1289 10.0618 40.6382 9.7152 38.4553 9.61559C36.268 9.51574 35.5696 9.49219 30 9.49219ZM30 13.1873C35.4758 13.1873 36.1245 13.2082 38.2869 13.3069C40.2864 13.3982 41.3722 13.7323 42.0949 14.0129C43.0522 14.385 43.7353 14.8295 44.453 15.547C45.1706 16.2647 45.615 16.9479 45.9871 17.9051C46.2679 18.6278 46.602 19.7136 46.6931 21.7131C46.7918 23.8755 46.8128 24.5242 46.8128 30C46.8128 35.4758 46.7918 36.1245 46.6931 38.2869C46.602 40.2864 46.2679 41.3722 45.9871 42.0949C45.615 43.0522 45.1706 43.7353 44.453 44.453C43.7353 45.1706 43.0522 45.615 42.0949 45.9871C41.3722 46.2679 40.2864 46.602 38.2869 46.6931C36.1248 46.7918 35.4762 46.8128 30 46.8128C24.5238 46.8128 23.8753 46.7918 21.7131 46.6931C19.7136 46.602 18.6278 46.2679 17.9051 45.9871C16.9478 45.615 16.2647 45.1706 15.547 44.453C14.8294 43.7353 14.3849 43.0522 14.0129 42.0949C13.7321 41.3722 13.398 40.2864 13.3068 38.2869C13.2081 36.1245 13.1872 35.4758 13.1872 30C13.1872 24.5242 13.2081 23.8755 13.3068 21.7131C13.398 19.7136 13.7321 18.6278 14.0129 17.9051C14.3849 16.9479 14.8294 16.2647 15.547 15.547C16.2647 14.8295 16.9478 14.385 17.9051 14.0129C18.6278 13.7323 19.7136 13.3982 21.7131 13.3069C23.8755 13.2082 24.5242 13.1873 30 13.1873ZM30 19.4689C24.1839 19.4689 19.4689 24.1839 19.4689 30C19.4689 35.8161 24.1839 40.5311 30 40.5311C35.8161 40.5311 40.5311 35.8161 40.5311 30C40.5311 24.1839 35.8161 19.4689 30 19.4689ZM30 36.8359C26.2246 36.8359 23.1641 33.7754 23.1641 30C23.1641 26.2246 26.2246 23.1641 30 23.1641C33.7754 23.1641 36.8359 26.2246 36.8359 30C36.8359 33.7754 33.7754 36.8359 30 36.8359ZM43.4081 19.0529C43.4081 20.4121 42.3062 21.5138 40.9471 21.5138C39.588 21.5138 38.4862 20.4121 38.4862 19.0529C38.4862 17.6938 39.588 16.592 40.9471 16.592C42.3062 16.592 43.4081 17.6938 43.4081 19.0529Z" fill="#F5F5F5"/>
</svg>
