<svg width="40" height="40" viewBox="0 0 40 40" fill="none" xmlns="http://www.w3.org/2000/svg">
<path d="M27.925 5C25.054 5 22.2985 6.32425 20.5 8.41689C18.7015 6.32425 15.946 5 13.075 5C7.993 5 4 8.9564 4 13.9918C4 20.1717 9.61 25.2071 18.1075 32.8583L20.5 35L22.8925 32.8419C31.39 25.2071 37 20.1717 37 13.9918C37 8.9564 33.007 5 27.925 5ZM20.665 30.4223L20.5 30.5858L20.335 30.4223C12.481 23.376 7.3 18.7166 7.3 13.9918C7.3 10.7221 9.775 8.26975 13.075 8.26975C15.616 8.26975 17.6125 9.58333 19.2625 11.25L20.5 12.9167L22.15 11.25C23.8 9.58333 25.384 8.26975 27.925 8.26975C31.225 8.26975 33.7 10.7221 33.7 13.9918C33.7 18.7166 28.519 23.376 20.665 30.4223Z" fill="#F5F5F5" fill-opacity="0.8"/>
</svg>
